<svg width="22" height="23" viewBox="0 0 22 23" fill="none" xmlns="http://www.w3.org/2000/svg">
<g clip-path="url(#clip0_301_908)">
<path d="M18.7348 7.63025H18.7344C18.0696 7.63025 17.5312 8.16751 17.5312 8.83083V14.3192C17.5312 14.9821 18.0696 15.5194 18.7344 15.5194C19.3987 15.5189 19.9371 14.9817 19.9371 14.3183V8.82998C19.9371 8.16665 19.3982 7.62939 18.7339 7.62939L18.7348 7.63025Z" fill="#A1A1A1"/>
<path d="M3.26605 7.63221H3.26562C2.6009 7.63221 2.0625 8.16947 2.0625 8.83279V14.3212C2.0625 14.9841 2.6009 15.5213 3.26562 15.5213C3.92992 15.5209 4.46832 14.9836 4.46832 14.3203V8.83193C4.46832 8.16861 3.92949 7.63135 3.2652 7.63135L3.26605 7.63221Z" fill="#A1A1A1"/>
<path d="M5.32812 7.63158V15.8641C5.32812 16.6218 5.94344 17.2358 6.70312 17.2358H7.5625V20.1515C7.5625 20.8144 8.1009 21.3517 8.76562 21.3517C9.42992 21.3512 9.96832 20.814 9.96832 20.1506V17.2349H12.0308V20.1506C12.0308 20.8135 12.5692 21.3508 13.2339 21.3508C13.8982 21.3504 14.4366 20.8131 14.4366 20.1498V17.2341H15.296L15.2956 17.234C16.0548 17.234 16.6706 16.6196 16.6706 15.862V7.62939L5.32812 7.63158Z" fill="#A1A1A1"/>
<path d="M16.5086 5.91743C16.1554 4.66154 15.3141 3.58873 14.1788 2.88296C14.1152 2.84352 14.0508 2.80493 13.9855 2.76805C13.9202 2.73075 13.8544 2.6943 13.7887 2.65871L14.007 2.26938L14.6897 1.0405V1.04007C14.7379 0.952601 14.7065 0.842834 14.6193 0.794382C14.6188 0.793953 14.6188 0.793953 14.6184 0.793953C14.5918 0.778945 14.5625 0.771227 14.5325 0.770799L14.532 0.770756C14.4659 0.770327 14.4053 0.805916 14.3735 0.863801L13.6817 2.1094L13.4634 2.50174C13.3946 2.47129 13.325 2.44257 13.2546 2.41598C13.1841 2.3894 13.1136 2.36153 13.0419 2.33623L13.0414 2.3358C11.7202 1.87186 10.2803 1.87186 8.95941 2.3358C8.88766 2.3611 8.81676 2.38768 8.74672 2.41555C8.67625 2.44385 8.60664 2.47258 8.53789 2.50131L8.31961 2.10898L7.62781 0.865516L7.62738 0.865087C7.57668 0.778474 7.46539 0.749746 7.37902 0.800342C7.29523 0.848794 7.26516 0.954702 7.30984 1.04003L7.98918 2.26634L8.20746 2.65567C8.14043 2.6904 8.07469 2.72642 8.0098 2.76329C7.94449 2.80017 7.88047 2.83876 7.8173 2.87992C6.68293 3.58569 5.84074 4.6585 5.4884 5.9131H5.48797C5.39043 6.24755 5.33672 6.59357 5.32812 6.94217H16.6659L16.6654 6.94174C16.6564 6.59358 16.6027 6.24798 16.5052 5.91353L16.5086 5.91743ZM8.42102 5.23139L8.42059 5.23134C8.1357 5.23092 7.90496 5.00066 7.90496 4.71681C7.90496 4.43253 8.1357 4.20227 8.42059 4.20227C8.70504 4.20227 8.93621 4.43253 8.93621 4.71681V4.71638C8.93621 5.00023 8.70504 5.23092 8.42059 5.23092L8.42102 5.23139ZM13.5773 5.23139L13.5768 5.23134C13.292 5.23092 13.0612 5.00066 13.0612 4.71681C13.0612 4.43253 13.292 4.20227 13.5768 4.20227C13.8613 4.20227 14.0925 4.43253 14.0925 4.71681V4.71638C14.0925 5.00023 13.8613 5.23092 13.5768 5.23092L13.5773 5.23139Z" fill="#A1A1A1"/>
</g>
<defs>
<clipPath id="clip0_301_908">
<rect width="22" height="21.9535" fill="white" transform="translate(0 0.0847168)"/>
</clipPath>
</defs>
</svg>
