<svg width="17" height="21" viewBox="0 0 17 21" fill="none" xmlns="http://www.w3.org/2000/svg">
<path d="M5.4176 20.0424C4.74995 20.0065 4.12169 19.7186 3.66241 19.2381C3.11302 18.7154 2.62276 18.1352 2.20027 17.5077C1.54034 16.5732 1.01868 15.5503 0.651069 14.47C0.234688 13.3078 0.0154736 12.0855 0.00229358 10.8527C-0.0297031 9.64289 0.273601 8.44752 0.879362 7.396C1.32275 6.63798 1.95519 6.00499 2.71632 5.55741C3.46903 5.11175 4.32798 4.87186 5.20524 4.8623C5.86656 4.90099 6.51644 5.05047 7.12714 5.30436C7.61405 5.51621 8.12653 5.66514 8.65193 5.74747C9.2317 5.62736 9.79822 5.45152 10.3434 5.22246C10.9886 4.9733 11.6718 4.83379 12.3641 4.8098C12.4564 4.8098 12.5478 4.8098 12.6359 4.8203C14.1538 4.86383 15.5656 5.60066 16.4585 6.81534C15.0388 7.56594 14.1671 9.04271 14.2042 10.6343C14.1902 11.8413 14.6992 12.9967 15.6026 13.8085C16.0092 14.1915 16.4827 14.4986 17 14.7146C16.8938 15.0296 16.7717 15.3341 16.6422 15.6407C16.3477 16.3183 15.9845 16.9646 15.558 17.5696C15.1555 18.1757 14.6869 18.7362 14.1607 19.2413C13.6803 19.7126 13.04 19.9906 12.3641 20.0214C11.7911 19.9963 11.2282 19.8634 10.7055 19.6298C10.1419 19.3869 9.53619 19.254 8.92163 19.2381C8.28973 19.2504 7.66609 19.3826 7.08467 19.6277C6.58248 19.8517 6.04594 19.9912 5.49724 20.0403L5.4176 20.0424ZM8.76236 4.8098C8.68272 4.8098 8.60308 4.8098 8.52345 4.80035C8.50669 4.67536 8.49782 4.54947 8.4969 4.42339C8.53163 3.37457 8.94613 2.37295 9.66491 1.60094C10.0666 1.1574 10.5536 0.797258 11.0973 0.541475C11.6047 0.283172 12.1593 0.127871 12.7283 0.0847168C12.7442 0.222269 12.7442 0.356672 12.7442 0.484774C12.7292 1.5171 12.3369 2.50918 11.6399 3.27782C10.9567 4.18376 9.9033 4.74456 8.76236 4.8098Z" fill="#A1A1A1"/>
</svg>
